<?xml version="1.0" encoding="UTF-8" standalone="no"?>
<svg
   xmlns:dc="http://purl.org/dc/elements/1.1/"
   xmlns:cc="http://creativecommons.org/ns#"
   xmlns:rdf="http://www.w3.org/1999/02/22-rdf-syntax-ns#"
   xmlns:svg="http://www.w3.org/2000/svg"
   xmlns="http://www.w3.org/2000/svg"
   version="1.1"
   id="general_cover"
   viewBox="0 0 3296.8894 1543.3816"
   height="435.57657mm"
   width="930.45544mm">
  <defs
     id="defs6583" />
  <metadata
     id="metadata6586">
    <rdf:RDF>
      <cc:Work
         rdf:about="">
        <dc:format>image/svg+xml</dc:format>
        <dc:type
           rdf:resource="http://purl.org/dc/dcmitype/StillImage" />
        <dc:title></dc:title>
      </cc:Work>
    </rdf:RDF>
  </metadata>
  <g
     transform="translate(-492.33515,868.11899)"
     id="logo">
    <path
       transform="matrix(0.9375,0,0,0.9375,0,-1498.8189)"
       d="m 3823.4102,937.32617 c -30.6016,0.15161 -100.9514,1.80938 -174.1387,12.64063 -32.5269,4.81385 -67.4465,11.503 -102.6934,20.33008 -70.498,17.65586 -143.4834,43.93592 -204.7304,89.93552 -61.2472,45.9986 -109.7215,117.8031 -113.2969,203.252 -3.6534,87.2977 47.353,149.086 112.3027,176.5234 64.9501,27.4374 143.2527,30.9953 219.9688,26.6797 153.4327,-8.6302 304.1152,-52.5234 304.1152,-52.5234 l -18.6016,-14.3184 26.8809,-10.3555 -53.8066,-3.4511 62.6757,-22.9786 -67.498,-0.3964 c 24.2172,-19.1784 69.2671,-19.4194 115.3984,-18.6758 -33.9418,-6.8553 -68.9425,-12.6509 -114.8769,-7.5137 l 28.4004,-17.7246 c 0,0 -137.753,33.5179 -274.7383,41.2227 -68.4929,3.8523 -134.7609,-1.7469 -176.5742,-19.4102 -41.8135,-17.6633 -59.7054,-36.9402 -57.6426,-86.2441 2.1415,-51.1539 18.4031,-87.0678 58.4141,-117.1172 40.0102,-30.0495 111.3518,-65.175 173.0058,-80.6153 123.3091,-30.8826 258.8438,-46.3027 258.8438,-46.3027 l -15.2774,-15.40625 43.8164,-5.83398 -44.9336,-11.99805 46.3867,-11.12109 -30.5136,-5.28516 19.0527,-8.25976 -20.4648,-3.54102 16.5097,-11.44531 c 0,0 -5.7838,-0.11694 -15.9843,-0.0664 z m -2487.125,62.66016 c -243.6783,-0.4698 -447.41801,19.24807 -447.41801,19.24807 -42.19531,-3.1135 -67.99344,94.3102 -3.64453,106.4844 0,0 303.36494,-29.1323 605.58004,-14.9239 150.6063,7.8575 562.7907,48.5122 576.0957,203.586 -93.9455,173.2035 -466.1549,294.7114 -609.8867,351.0703 -166.7274,65.165 -338.8765,114.246 -479.36131,170.7109 -70.24256,28.2324 -132.35631,68.0461 -183.19727,93.7969 -50.84031,25.7518 -78.38027,57.7477 -108.25195,92.5039 42.45674,-26.1568 54.00352,-53.9394 130.03125,-78.3301 -62.5856,33.005 -86.09998,72.5211 -126.28711,109.2598 10.67776,-8.3183 64.11874,-59.4354 77.95703,-68.6211 -0.44418,8.4039 -11.57272,15.2998 -24.42382,29.082 12.16608,-8.2168 48.43074,-38.0343 60.99218,-46.1152 14.11208,-9.0785 38.46225,-27.3487 28.31641,-10.8379 39.02924,-23.8095 73.4618,-42.8845 90.02344,-49.207 -113.00214,60.3225 -230.83985,183.2324 -230.83985,183.2324 143.90688,-129.0824 251.64975,-150.8383 238.05274,-146.0625 -137.35958,48.2427 -193.49512,136.5801 -195.93555,168.1699 4.49835,-5.2337 15.06047,-43.7599 91.49609,-96.4434 42.80886,-29.5055 111.25422,-54.0996 179.89452,-81.6875 137.2792,-55.1768 309.6913,-104.3237 478.3672,-170.25 168.6759,-65.9251 333.4995,-135.3208 459.8164,-207.6289 63.1582,-36.1534 116.8982,-72.7366 158.0195,-113.6679 41.1208,-40.9303 72.6417,-91.0543 71.2246,-145.4297 -1.5435,-59.1957 -29.8884,-108.4746 -70.8925,-144.8125 -41.0047,-36.3379 -94.638,-62.5732 -156.3653,-82.9981 -123.4554,-40.8507 -280.3634,-58.7562 -436.2949,-66.0879 -58.4742,-2.7491 -116.8349,-3.9326 -173.0683,-4.04097 z m 1802.8164,11.37887 -13.0918,22.3145 6.4922,-19.9258 -19.8184,34.5977 4.7793,-24.2461 -12.4512,13.9218 -2.709,-11.9316 -33.4707,40.3984 c -53.3742,75.9251 -103.8108,160.2818 -139.0547,288.2383 -42.9996,-82.329 -76.7522,-175.1115 -136.3769,-238.6504 l -68.6816,-57.4101 c 6.5704,23.9082 -1.6287,31.8168 -4.9024,45.0605 -17.0628,-16.1252 -34.9857,-44.3065 -50.4141,-37.5488 -32.0034,39.1099 2.5937,73.7673 17.0293,98.0293 88.4736,101.6896 142.7863,219.2161 195.3106,337.5703 l 46.3789,87.7129 -6.0098,-47.3125 19.1875,33.584 6.0059,-38.3653 14.7441,-12.6054 14.1074,-34.6465 c 52.5044,-170.3932 131.2057,-323.2401 213.8633,-473.4375 L 3177.082,1034 l 6.7989,-16.9824 -25.4043,34.8769 15.2597,-37.9863 -15.4394,22.7559 2.3398,-18.8575 -18.4883,18.7286 4.3457,-21.9414 -13.0312,19.1425 z m -433.8379,12.5782 c -4.9725,-0.122 -9.1114,4.0703 -9.1114,4.0703 0,0 12.1603,2.8507 18.8731,12.4062 4.9487,7.0445 6.0586,9.5567 6.3047,10.3985 -0.3616,-2.0322 -3.3745,-17.9857 -10.043,-24.2403 -2.0032,-1.8788 -4.0777,-2.587 -6.0234,-2.6347 z m 16.0664,26.875 c 0.025,0.1383 0.072,0.4004 0.072,0.4004 0,0 0.015,-0.1004 -0.072,-0.4004 z m -255.5723,6.5605 -296.4961,616.6914 467.7676,-61.2461 -11.293,-8.6816 42.7325,0.2324 -45.5723,-8.3516 57.7305,-5.2187 -22.4219,-6.3067 26.5312,-4.2265 -45.7832,-9.543 25.1192,-3.2168 -36.8809,-5.5957 31.7617,-4.1738 -36.2851,-4.2813 72.2461,-5.33 -45.1094,-5.9454 23.4824,-2.9394 -8.1016,-5.5996 15.5,-8.0274 -22.2207,-2.8105 37.8067,-16.834 -372.8613,51.7344 138.5937,-255.0391 118.5762,179.9082 c 1.0912,1.7098 8.3319,9.6425 16.7871,5.2676 12.8947,-6.672 22.1313,-14.1712 36.4238,-15.668 17.1515,4.6496 32.4477,0.9774 36.3926,-1.6172 3.9448,-2.5945 1.569,-6.4026 0.6777,-9.7714 z m 1305.2578,96.4844 c -3.0465,0.01 -5.8501,0.089 -8.2676,0.2012 l -390.7539,44.3613 25.1641,4.2246 -12.5039,4.3262 11.7324,3.4394 -30.4004,11.6406 27.9571,-1.7519 -12.0743,6.3594 15.2364,1.5722 -17.2032,3.9453 15.5977,3.9688 -20.0605,7.0723 9.9179,2.1953 -9.3476,3.5742 27.6972,2.5723 -19.3066,5.8066 14.8379,5.7051 -34.0332,6.0371 30.5703,3.8867 -9.2754,5.5879 10.2461,4.4531 -22.9531,7.1035 32.7207,-1.8906 -31.2071,15.75 122.4473,-25.5469 269.5957,-56.248 c 28.0942,-16.2269 71.7876,-14.1447 104.3399,-15.6797 -11.1903,-10.6115 -21.3629,-22.7891 -34.5274,-27.5234 -24.5802,-8.8423 -43.6904,-5.6631 -64.6601,-6.5684 l 39.9218,-10.2656 c -10.4634,-6.9027 -28.2067,-8.3341 -41.4082,-8.3086 z m -2507.6289,13.7012 c -9.3817,8.6053 -13.4396,33.1783 -19.0605,53.0664 l -0.1211,-25.2168 c -6.1309,1.607 -11.5773,6.6359 -16.2715,15.4257 l 66.8613,408.7071 16.0117,-46.0742 22.336,75.0585 3.8008,-47.8984 11.7851,12.6504 c -2.538,-8.6866 -5.0753,-24.974 -7.6133,-28.2324 l 14.7246,10.5273 3.3692,-12.1836 14.1484,8.8907 -18.125,-59.2032 39.9453,70.7637 -12.1504,-43.0898 18.0372,19.6211 -9.5899,-42.0625 21.4395,27.2793 0.5175,-18.25 14.5664,19.6406 -6.7187,-20.836 13.5918,12.4688 c -13.0723,-43.7331 -28.4186,-90.8792 -30.1543,-117.6074 -12.9374,-62.482 -37.1333,-129.4204 -61.4297,-191.9024 l -5,-67.1972 -14.625,26.3144 9.3242,-39.3555 -26.1523,33.1543 -0.3516,-28.2207 -31.9004,52.0059 c -13.8304,-21.0986 -8.1698,-38.9464 -11.1953,-58.2441 z m 2657.8789,45.1699 c 0,0 13.3714,15.5979 24.5137,18.9414 11.1431,3.3425 26.7427,23.4009 17.8281,5.5722 -8.9132,-17.8286 -42.3418,-24.5136 -42.3418,-24.5136 z m -2632.539,27.7949 c 0,0 21.569,58.7505 30.7187,107.1895 9.1497,48.439 20.8672,84.0742 20.8672,84.0742 0,0 -14.58,-30.1023 -26.9082,-82.5996 -11.0031,-48.2124 -4.4947,-41.1488 -24.6777,-108.6641 z m -21.377,20.7285 c 0,0 14.9733,46.3312 23.1621,84.793 8.1888,38.4618 16.6153,66.6074 16.6153,66.6074 0,0 -9.3719,-23.6328 -19.4082,-65.2441 -9.0637,-38.2245 -5.3774,-32.7721 -20.3692,-86.1563 z m 16.0781,127.4785 c 0,0 21.6345,57.5309 32.2559,105.4082 10.6212,47.8775 22.6035,82.8438 22.6035,82.8438 0,0 -14.0349,-29.2977 -27.5625,-81.0625 -12.1568,-47.5559 -6.2814,-40.8388 -27.2969,-107.1895 z m -605.79489,641.8692 c 0,0 -16.36687,6.1626 -31.91406,22.8007 -15.54745,16.6382 -18.09375,28.9942 -18.09375,28.9942 0,0 7.81489,-8.9879 17.02734,-21.2383 15.46559,-20.5669 32.98047,-30.5566 32.98047,-30.5566 z m -5.57226,65.7422 c 0,0 -22.284,11.143 -43.45508,41.2285 -21.17107,30.0844 -27.85742,105.8535 -27.85742,105.8535 0,0 13.85924,-69.6784 26.40429,-91.8301 21.05867,-37.1881 44.90821,-55.2519 44.90821,-55.2519 z"
       style="color:#000000;font-style:normal;font-variant:normal;font-weight:normal;font-stretch:normal;font-size:medium;line-height:normal;font-family:Sans;-inkscape-font-specification:Sans;text-indent:0;text-align:start;text-decoration:none;text-decoration-line:none;letter-spacing:normal;word-spacing:normal;text-transform:none;writing-mode:lr-tb;direction:ltr;baseline-shift:baseline;text-anchor:start;display:inline;overflow:visible;visibility:visible;fill:#ffffff;fill-opacity:1;stroke:none;stroke-width:10.6667;marker:none;enable-background:accumulate"
       id="dave_logo" />
  </g>
</svg>
